<svg xmlns="http://www.w3.org/2000/svg" xmlns:xlink="http://www.w3.org/1999/xlink" version="1.1" data-diagram-type="SEQUENCE" style="width:2922px;height:1960px;background:#FFFFFF;" width="2922px" height="1960px" viewBox="0 0 2922 1960" zoomAndPan="magnify" preserveAspectRatio="none" contentStyleType="text/css"><?plantuml 1.2026.9beta4?><defs/><g font-family="sans-serif" lengthAdjust="spacing"><rect x="231.413" y="547.156" width="2221.979" height="570.195" fill="none" style="stroke:#000;stroke-width:1.5;"/><rect x="2225.232" y="830.156" width="203.16" height="56.266" fill="none" style="stroke:#000;stroke-width:1.5;"/><rect x="231.413" y="1440.68" width="2621.632" height="408.531" fill="none" style="stroke:#000;stroke-width:1.5;"/><g><title>Home Cook</title><rect x="49.904" y="86.297" width="8" height="1786.914" fill="#000" fill-opacity="0"/><line x1="53.404" y1="86.297" x2="53.404" y2="1873.211" style="stroke:#181818;stroke-width:0.5;stroke-dasharray:5,5;"/></g><g><title>MealPlannerGUI</title><rect x="243.913" y="86.297" width="8" height="1786.914" fill="#000" fill-opacity="0"/><line x1="247.413" y1="86.297" x2="247.413" y2="1873.211" style="stroke:#181818;stroke-width:0.5;stroke-dasharray:5,5;"/></g><g><title>MealPlannerFacade</title><rect x="530.471" y="86.297" width="8" height="1786.914" fill="#000" fill-opacity="0"/><line x1="533.971" y1="86.297" x2="533.971" y2="1873.211" style="stroke:#181818;stroke-width:0.5;stroke-dasharray:5,5;"/></g><g><title>RecipeRepository</title><rect x="787.252" y="86.297" width="8" height="1786.914" fill="#000" fill-opacity="0"/><line x1="790.752" y1="86.297" x2="790.752" y2="1873.211" style="stroke:#181818;stroke-width:0.5;stroke-dasharray:5,5;"/></g><g><title>MealPlanningAgent</title><rect x="939.956" y="86.297" width="8" height="1786.914" fill="#000" fill-opacity="0"/><line x1="943.456" y1="86.297" x2="943.456" y2="1873.211" style="stroke:#181818;stroke-width:0.5;stroke-dasharray:5,5;"/></g><g><title>RecommendationWorkflow</title><rect x="1216.402" y="86.297" width="8" height="1786.914" fill="#000" fill-opacity="0"/><line x1="1219.902" y1="86.297" x2="1219.902" y2="1873.211" style="stroke:#181818;stroke-width:0.5;stroke-dasharray:5,5;"/></g><g><title>LeftoverWorkflow</title><rect x="1396.357" y="86.297" width="8" height="1786.914" fill="#000" fill-opacity="0"/><line x1="1399.857" y1="86.297" x2="1399.857" y2="1873.211" style="stroke:#181818;stroke-width:0.5;stroke-dasharray:5,5;"/></g><g><title>LLMProvider</title><rect x="1624.244" y="86.297" width="8" height="1786.914" fill="#000" fill-opacity="0"/><line x1="1627.744" y1="86.297" x2="1627.744" y2="1873.211" style="stroke:#181818;stroke-width:0.5;stroke-dasharray:5,5;"/></g><g><title>ToolManager</title><rect x="1736.65" y="86.297" width="8" height="1786.914" fill="#000" fill-opacity="0"/><line x1="1740.15" y1="86.297" x2="1740.15" y2="1873.211" style="stroke:#181818;stroke-width:0.5;stroke-dasharray:5,5;"/></g><g><title>PantryQueryTool</title><rect x="1864.891" y="86.297" width="8" height="1786.914" fill="#000" fill-opacity="0"/><line x1="1868.391" y1="86.297" x2="1868.391" y2="1873.211" style="stroke:#181818;stroke-width:0.5;stroke-dasharray:5,5;"/></g><g><title>RecipeSearchTool</title><rect x="2010.366" y="86.297" width="8" height="1786.914" fill="#000" fill-opacity="0"/><line x1="2013.866" y1="86.297" x2="2013.866" y2="1873.211" style="stroke:#181818;stroke-width:0.5;stroke-dasharray:5,5;"/></g><g><title>RecipeRanker</title><rect x="2237.732" y="86.297" width="8" height="1786.914" fill="#000" fill-opacity="0"/><line x1="2241.232" y1="86.297" x2="2241.232" y2="1873.211" style="stroke:#181818;stroke-width:0.5;stroke-dasharray:5,5;"/></g><g><title>RecipeScoringStrategy</title><rect x="2390.258" y="86.297" width="8" height="1786.914" fill="#000" fill-opacity="0"/><line x1="2393.758" y1="86.297" x2="2393.758" y2="1873.211" style="stroke:#181818;stroke-width:0.5;stroke-dasharray:5,5;"/></g><g><title>PantryInventory</title><rect x="2550.389" y="86.297" width="8" height="1786.914" fill="#000" fill-opacity="0"/><line x1="2553.889" y1="86.297" x2="2553.889" y2="1873.211" style="stroke:#181818;stroke-width:0.5;stroke-dasharray:5,5;"/></g><g><title>LeftoverTracker</title><rect x="2686.091" y="86.297" width="8" height="1786.914" fill="#000" fill-opacity="0"/><line x1="2689.591" y1="86.297" x2="2689.591" y2="1873.211" style="stroke:#181818;stroke-width:0.5;stroke-dasharray:5,5;"/></g><g><title>ConstraintValidator</title><rect x="2833.545" y="86.297" width="8" height="1786.914" fill="#000" fill-opacity="0"/><line x1="2837.045" y1="86.297" x2="2837.045" y2="1873.211" style="stroke:#181818;stroke-width:0.5;stroke-dasharray:5,5;"/></g><text x="10" y="82.995" fill="#000" font-size="14" textLength="80.808">Home Cook</text><ellipse cx="53.404" cy="18.5" rx="8" ry="8" fill="#E2E2F0" style="stroke:#181818;stroke-width:0.5;"/><path d="M53.404,26.5 L53.404,53.5 M40.404,34.5 L66.404,34.5 M53.404,53.5 L40.404,68.5 M53.404,53.5 L66.404,68.5" style="stroke:#181818;stroke-width:0.5;" fill="none"/><rect x="184.707" y="55" width="125.412" height="30.297" fill="#E2E2F0" style="stroke:#181818;stroke-width:0.5;" rx="2.5" ry="2.5"/><text x="191.707" y="74.995" fill="#000" font-size="14" textLength="111.412">MealPlannerGUI</text><rect x="458.673" y="55" width="150.596" height="30.297" fill="#E2E2F0" style="stroke:#181818;stroke-width:0.5;" rx="2.5" ry="2.5"/><text x="465.673" y="74.995" fill="#000" font-size="14" textLength="136.596">MealPlannerFacade</text><rect x="722.502" y="55" width="136.5" height="30.297" fill="#E2E2F0" style="stroke:#181818;stroke-width:0.5;" rx="2.5" ry="2.5"/><text x="729.502" y="74.995" fill="#000" font-size="14" textLength="122.5">RecipeRepository</text><rect x="869.002" y="55" width="148.907" height="30.297" fill="#E2E2F0" style="stroke:#181818;stroke-width:0.5;" rx="2.5" ry="2.5"/><text x="876.002" y="74.995" fill="#000" font-size="14" textLength="134.907">MealPlanningAgent</text><rect x="1118.525" y="55" width="202.754" height="30.297" fill="#E2E2F0" style="stroke:#181818;stroke-width:0.5;" rx="2.5" ry="2.5"/><text x="1125.525" y="74.995" fill="#000" font-size="14" textLength="188.754">RecommendationWorkflow</text><rect x="1331.279" y="55" width="137.156" height="30.297" fill="#E2E2F0" style="stroke:#181818;stroke-width:0.5;" rx="2.5" ry="2.5"/><text x="1338.279" y="74.995" fill="#000" font-size="14" textLength="123.156">LeftoverWorkflow</text><rect x="1577.808" y="55" width="99.873" height="30.297" fill="#E2E2F0" style="stroke:#181818;stroke-width:0.5;" rx="2.5" ry="2.5"/><text x="1584.808" y="74.995" fill="#000" font-size="14" textLength="85.873">LLMProvider</text><rect x="1687.681" y="55" width="104.938" height="30.297" fill="#E2E2F0" style="stroke:#181818;stroke-width:0.5;" rx="2.5" ry="2.5"/><text x="1694.681" y="74.995" fill="#000" font-size="14" textLength="90.938">ToolManager</text><rect x="1802.619" y="55" width="131.544" height="30.297" fill="#E2E2F0" style="stroke:#181818;stroke-width:0.5;" rx="2.5" ry="2.5"/><text x="1809.619" y="74.995" fill="#000" font-size="14" textLength="117.544">PantryQueryTool</text><rect x="1944.163" y="55" width="139.405" height="30.297" fill="#E2E2F0" style="stroke:#181818;stroke-width:0.5;" rx="2.5" ry="2.5"/><text x="1951.163" y="74.995" fill="#000" font-size="14" textLength="125.405">RecipeSearchTool</text><rect x="2185.69" y="55" width="111.084" height="30.297" fill="#E2E2F0" style="stroke:#181818;stroke-width:0.5;" rx="2.5" ry="2.5"/><text x="2192.69" y="74.995" fill="#000" font-size="14" textLength="97.084">RecipeRanker</text><rect x="2306.774" y="55" width="173.968" height="30.297" fill="#E2E2F0" style="stroke:#181818;stroke-width:0.5;" rx="2.5" ry="2.5"/><text x="2313.774" y="74.995" fill="#000" font-size="14" textLength="159.968">RecipeScoringStrategy</text><rect x="2490.742" y="55" width="126.294" height="30.297" fill="#E2E2F0" style="stroke:#181818;stroke-width:0.5;" rx="2.5" ry="2.5"/><text x="2497.742" y="74.995" fill="#000" font-size="14" textLength="112.294">PantryInventory</text><rect x="2627.036" y="55" width="125.111" height="30.297" fill="#E2E2F0" style="stroke:#181818;stroke-width:0.5;" rx="2.5" ry="2.5"/><text x="2634.036" y="74.995" fill="#000" font-size="14" textLength="111.111">LeftoverTracker</text><rect x="2762.147" y="55" width="149.796" height="30.297" fill="#E2E2F0" style="stroke:#181818;stroke-width:0.5;" rx="2.5" ry="2.5"/><text x="2769.147" y="74.995" fill="#000" font-size="14" textLength="135.796">ConstraintValidator</text><text x="10" y="1886.206" fill="#000" font-size="14" textLength="80.808">Home Cook</text><ellipse cx="53.404" cy="1898.008" rx="8" ry="8" fill="#E2E2F0" style="stroke:#181818;stroke-width:0.5;"/><path d="M53.404,1906.008 L53.404,1933.008 M40.404,1914.008 L66.404,1914.008 M53.404,1933.008 L40.404,1948.008 M53.404,1933.008 L66.404,1948.008" style="stroke:#181818;stroke-width:0.5;" fill="none"/><rect x="184.707" y="1873.211" width="125.412" height="30.297" fill="#E2E2F0" style="stroke:#181818;stroke-width:0.5;" rx="2.5" ry="2.5"/><text x="191.707" y="1893.206" fill="#000" font-size="14" textLength="111.412">MealPlannerGUI</text><rect x="458.673" y="1873.211" width="150.596" height="30.297" fill="#E2E2F0" style="stroke:#181818;stroke-width:0.5;" rx="2.5" ry="2.5"/><text x="465.673" y="1893.206" fill="#000" font-size="14" textLength="136.596">MealPlannerFacade</text><rect x="722.502" y="1873.211" width="136.5" height="30.297" fill="#E2E2F0" style="stroke:#181818;stroke-width:0.5;" rx="2.5" ry="2.5"/><text x="729.502" y="1893.206" fill="#000" font-size="14" textLength="122.5">RecipeRepository</text><rect x="869.002" y="1873.211" width="148.907" height="30.297" fill="#E2E2F0" style="stroke:#181818;stroke-width:0.5;" rx="2.5" ry="2.5"/><text x="876.002" y="1893.206" fill="#000" font-size="14" textLength="134.907">MealPlanningAgent</text><rect x="1118.525" y="1873.211" width="202.754" height="30.297" fill="#E2E2F0" style="stroke:#181818;stroke-width:0.5;" rx="2.5" ry="2.5"/><text x="1125.525" y="1893.206" fill="#000" font-size="14" textLength="188.754">RecommendationWorkflow</text><rect x="1331.279" y="1873.211" width="137.156" height="30.297" fill="#E2E2F0" style="stroke:#181818;stroke-width:0.5;" rx="2.5" ry="2.5"/><text x="1338.279" y="1893.206" fill="#000" font-size="14" textLength="123.156">LeftoverWorkflow</text><rect x="1577.808" y="1873.211" width="99.873" height="30.297" fill="#E2E2F0" style="stroke:#181818;stroke-width:0.5;" rx="2.5" ry="2.5"/><text x="1584.808" y="1893.206" fill="#000" font-size="14" textLength="85.873">LLMProvider</text><rect x="1687.681" y="1873.211" width="104.938" height="30.297" fill="#E2E2F0" style="stroke:#181818;stroke-width:0.5;" rx="2.5" ry="2.5"/><text x="1694.681" y="1893.206" fill="#000" font-size="14" textLength="90.938">ToolManager</text><rect x="1802.619" y="1873.211" width="131.544" height="30.297" fill="#E2E2F0" style="stroke:#181818;stroke-width:0.5;" rx="2.5" ry="2.5"/><text x="1809.619" y="1893.206" fill="#000" font-size="14" textLength="117.544">PantryQueryTool</text><rect x="1944.163" y="1873.211" width="139.405" height="30.297" fill="#E2E2F0" style="stroke:#181818;stroke-width:0.5;" rx="2.5" ry="2.5"/><text x="1951.163" y="1893.206" fill="#000" font-size="14" textLength="125.405">RecipeSearchTool</text><rect x="2185.69" y="1873.211" width="111.084" height="30.297" fill="#E2E2F0" style="stroke:#181818;stroke-width:0.5;" rx="2.5" ry="2.5"/><text x="2192.69" y="1893.206" fill="#000" font-size="14" textLength="97.084">RecipeRanker</text><rect x="2306.774" y="1873.211" width="173.968" height="30.297" fill="#E2E2F0" style="stroke:#181818;stroke-width:0.5;" rx="2.5" ry="2.5"/><text x="2313.774" y="1893.206" fill="#000" font-size="14" textLength="159.968">RecipeScoringStrategy</text><rect x="2490.742" y="1873.211" width="126.294" height="30.297" fill="#E2E2F0" style="stroke:#181818;stroke-width:0.5;" rx="2.5" ry="2.5"/><text x="2497.742" y="1893.206" fill="#000" font-size="14" textLength="112.294">PantryInventory</text><rect x="2627.036" y="1873.211" width="125.111" height="30.297" fill="#E2E2F0" style="stroke:#181818;stroke-width:0.5;" rx="2.5" ry="2.5"/><text x="2634.036" y="1893.206" fill="#000" font-size="14" textLength="111.111">LeftoverTracker</text><rect x="2762.147" y="1873.211" width="149.796" height="30.297" fill="#E2E2F0" style="stroke:#181818;stroke-width:0.5;" rx="2.5" ry="2.5"/><text x="2769.147" y="1893.206" fill="#000" font-size="14" textLength="135.796">ConstraintValidator</text><rect x="10" y="114.863" width="2901.943" height="3" fill="#EEE" style="stroke:#EEE;stroke-width:1;"/><line x1="10" y1="114.863" x2="2911.943" y2="114.863" style="stroke:#000;stroke-width:1;"/><line x1="10" y1="117.863" x2="2911.943" y2="117.863" style="stroke:#000;stroke-width:1;"/><rect x="1311.511" y="104.297" width="298.921" height="23.133" fill="#EEE" style="stroke:#000;stroke-width:2;"/><text x="1317.511" y="120.364" fill="#000" font-size="13" textLength="280.395" font-weight="700">F03: Ingredient search (deterministic)</text><polygon points="235.413,154.563,245.413,158.563,235.413,162.563,239.413,158.563" fill="#181818" style="stroke:#181818;stroke-width:1;stroke-linejoin:miter;stroke-miterlimit:10;"/><line x1="53.404" y1="158.563" x2="241.413" y2="158.563" style="stroke:#181818;stroke-width:1;"/><text x="60.404" y="153.497" fill="#000" font-size="13" textLength="168.397">enter ingredients + filters</text><polygon points="521.971,183.695,531.971,187.695,521.971,191.695,525.971,187.695" fill="#181818" style="stroke:#181818;stroke-width:1;stroke-linejoin:miter;stroke-miterlimit:10;"/><line x1="247.413" y1="187.695" x2="527.971" y2="187.695" style="stroke:#181818;stroke-width:1;"/><text x="254.413" y="182.629" fill="#000" font-size="13" textLength="262.558">searchByIngredients(ingredients, filters)</text><polygon points="778.752,212.828,788.752,216.828,778.752,220.828,782.752,216.828" fill="#181818" style="stroke:#181818;stroke-width:1;stroke-linejoin:miter;stroke-miterlimit:10;"/><line x1="533.971" y1="216.828" x2="784.752" y2="216.828" style="stroke:#181818;stroke-width:1;"/><text x="540.971" y="211.762" fill="#000" font-size="13" textLength="232.781">searchByIngredients(names, filters)</text><polygon points="544.971,241.961,534.971,245.961,544.971,249.961,540.971,245.961" fill="#181818" style="stroke:#181818;stroke-width:1;stroke-linejoin:miter;stroke-miterlimit:10;"/><line x1="538.971" y1="245.961" x2="789.752" y2="245.961" style="stroke:#181818;stroke-width:1;stroke-dasharray:2,2;"/><text x="550.971" y="240.895" fill="#000" font-size="13" textLength="47.125">recipes</text><polygon points="258.413,271.094,248.413,275.094,258.413,279.094,254.413,275.094" fill="#181818" style="stroke:#181818;stroke-width:1;stroke-linejoin:miter;stroke-miterlimit:10;"/><line x1="252.413" y1="275.094" x2="532.971" y2="275.094" style="stroke:#181818;stroke-width:1;stroke-dasharray:2,2;"/><text x="264.413" y="270.028" fill="#000" font-size="13" textLength="47.125">recipes</text><line x1="247.413" y1="304.227" x2="289.413" y2="304.227" style="stroke:#181818;stroke-width:1;"/><line x1="289.413" y1="304.227" x2="289.413" y2="317.227" style="stroke:#181818;stroke-width:1;"/><line x1="248.413" y1="317.227" x2="289.413" y2="317.227" style="stroke:#181818;stroke-width:1;"/><polygon points="258.413,313.227,248.413,317.227,258.413,321.227,254.413,317.227" fill="#181818" style="stroke:#181818;stroke-width:1;stroke-linejoin:miter;stroke-miterlimit:10;"/><text x="254.413" y="299.161" fill="#000" font-size="13" textLength="141.68">showRecipes(recipes)</text><rect x="10" y="345.793" width="2901.943" height="3" fill="#EEE" style="stroke:#EEE;stroke-width:1;"/><line x1="10" y1="345.793" x2="2911.943" y2="345.793" style="stroke:#000;stroke-width:1;"/><line x1="10" y1="348.793" x2="2911.943" y2="348.793" style="stroke:#000;stroke-width:1;"/><rect x="1361.667" y="335.227" width="198.609" height="23.133" fill="#EEE" style="stroke:#000;stroke-width:2;"/><text x="1367.667" y="351.293" fill="#000" font-size="13" textLength="180.083" font-weight="700">F03: AI recommendation</text><polygon points="235.413,385.492,245.413,389.492,235.413,393.492,239.413,389.492" fill="#181818" style="stroke:#181818;stroke-width:1;stroke-linejoin:miter;stroke-miterlimit:10;"/><line x1="53.404" y1="389.492" x2="241.413" y2="389.492" style="stroke:#181818;stroke-width:1;"/><text x="60.404" y="384.426" fill="#000" font-size="13" textLength="170.009">"quick high-protein lunch"</text><polygon points="521.971,414.625,531.971,418.625,521.971,422.625,525.971,418.625" fill="#181818" style="stroke:#181818;stroke-width:1;stroke-linejoin:miter;stroke-miterlimit:10;"/><line x1="247.413" y1="418.625" x2="527.971" y2="418.625" style="stroke:#181818;stroke-width:1;"/><text x="254.413" y="413.559" fill="#000" font-size="13" textLength="186.78">recommendRecipes(prompt)</text><polygon points="931.456,443.758,941.456,447.758,931.456,451.758,935.456,447.758" fill="#181818" style="stroke:#181818;stroke-width:1;stroke-linejoin:miter;stroke-miterlimit:10;"/><line x1="533.971" y1="447.758" x2="937.456" y2="447.758" style="stroke:#181818;stroke-width:1;"/><text x="540.971" y="442.692" fill="#000" font-size="13" textLength="201.233">handle(request[RECOMMEND])</text><polygon points="1207.902,472.891,1217.902,476.891,1207.902,480.891,1211.902,476.891" fill="#181818" style="stroke:#181818;stroke-width:1;stroke-linejoin:miter;stroke-miterlimit:10;"/><line x1="943.456" y1="476.891" x2="1213.902" y2="476.891" style="stroke:#181818;stroke-width:1;"/><text x="950.456" y="471.825" fill="#000" font-size="13" textLength="112.017">execute(request)</text><polygon points="1615.744,502.023,1625.744,506.023,1615.744,510.023,1619.744,506.023" fill="#181818" style="stroke:#181818;stroke-width:1;stroke-linejoin:miter;stroke-miterlimit:10;"/><line x1="1219.902" y1="506.023" x2="1621.744" y2="506.023" style="stroke:#181818;stroke-width:1;"/><text x="1226.902" y="500.958" fill="#000" font-size="13" textLength="188.709">complete(extraction prompt)</text><polygon points="1230.902,531.156,1220.902,535.156,1230.902,539.156,1226.902,535.156" fill="#181818" style="stroke:#181818;stroke-width:1;stroke-linejoin:miter;stroke-miterlimit:10;"/><line x1="1224.902" y1="535.156" x2="1626.744" y2="535.156" style="stroke:#181818;stroke-width:1;stroke-dasharray:2,2;"/><text x="1236.902" y="530.09" fill="#000" font-size="13" textLength="147.247">PlanningRequirements</text><path d="M231.413,547.156 L295.856,547.156 L295.856,554.289 L285.856,564.289 L231.413,564.289 L231.413,547.156" style="stroke:#000;stroke-width:1.5;" fill="#EEE"/><rect x="231.413" y="547.156" width="2221.979" height="570.195" fill="none" style="stroke:#000;stroke-width:1.5;"/><text x="246.413" y="560.223" fill="#000" font-size="13" textLength="19.443" font-weight="700">alt</text><text x="310.856" y="559.367" fill="#000" font-size="11" textLength="149.655" font-weight="700">[missingInfo not empty]</text><polygon points="954.456,591.422,944.456,595.422,954.456,599.422,950.456,595.422" fill="#181818" style="stroke:#181818;stroke-width:1;stroke-linejoin:miter;stroke-miterlimit:10;"/><line x1="948.456" y1="595.422" x2="1218.902" y2="595.422" style="stroke:#181818;stroke-width:1;stroke-dasharray:2,2;"/><text x="960.456" y="590.356" fill="#000" font-size="13" textLength="252.446">AgentResponse(clarificationQuestions)</text><polygon points="258.413,620.555,248.413,624.555,258.413,628.555,254.413,624.555" fill="#181818" style="stroke:#181818;stroke-width:1;stroke-linejoin:miter;stroke-miterlimit:10;"/><line x1="252.413" y1="624.555" x2="532.971" y2="624.555" style="stroke:#181818;stroke-width:1;stroke-dasharray:2,2;"/><text x="264.413" y="619.489" fill="#000" font-size="13" textLength="173.164">askClarification(questions)</text><line x1="231.413" y1="633.555" x2="2453.392" y2="633.555" style="stroke:#000;stroke-width:1;stroke-dasharray:2,2;"/><text x="236.413" y="645.765" fill="#000" font-size="11" textLength="155.053" font-weight="700">[requirements complete]</text><polygon points="1728.15,668.492,1738.15,672.492,1728.15,676.492,1732.15,672.492" fill="#181818" style="stroke:#181818;stroke-width:1;stroke-linejoin:miter;stroke-miterlimit:10;"/><line x1="1219.902" y1="672.492" x2="1734.15" y2="672.492" style="stroke:#181818;stroke-width:1;"/><text x="1226.902" y="667.426" fill="#000" font-size="13" textLength="202.598">execute("pantry_query", input)</text><polygon points="1856.391,697.625,1866.391,701.625,1856.391,705.625,1860.391,701.625" fill="#181818" style="stroke:#181818;stroke-width:1;stroke-linejoin:miter;stroke-miterlimit:10;"/><line x1="1740.15" y1="701.625" x2="1862.391" y2="701.625" style="stroke:#181818;stroke-width:1;"/><text x="1747.15" y="696.559" fill="#000" font-size="13" textLength="95.754">execute(input)</text><polygon points="1751.15,726.758,1741.15,730.758,1751.15,734.758,1747.15,730.758" fill="#181818" style="stroke:#181818;stroke-width:1;stroke-linejoin:miter;stroke-miterlimit:10;"/><line x1="1745.15" y1="730.758" x2="1867.391" y2="730.758" style="stroke:#181818;stroke-width:1;stroke-dasharray:2,2;"/><text x="1757.15" y="725.692" fill="#000" font-size="13" textLength="82.869">pantry items</text><polygon points="1728.15,755.891,1738.15,759.891,1728.15,763.891,1732.15,759.891" fill="#181818" style="stroke:#181818;stroke-width:1;stroke-linejoin:miter;stroke-miterlimit:10;"/><line x1="1219.902" y1="759.891" x2="1734.15" y2="759.891" style="stroke:#181818;stroke-width:1;"/><text x="1226.902" y="754.825" fill="#000" font-size="13" textLength="206.299">execute("recipe_search", input)</text><polygon points="2001.866,785.023,2011.866,789.023,2001.866,793.023,2005.866,789.023" fill="#181818" style="stroke:#181818;stroke-width:1;stroke-linejoin:miter;stroke-miterlimit:10;"/><line x1="1740.15" y1="789.023" x2="2007.866" y2="789.023" style="stroke:#181818;stroke-width:1;"/><text x="1747.15" y="783.958" fill="#000" font-size="13" textLength="95.754">execute(input)</text><polygon points="2229.232,814.156,2239.232,818.156,2229.232,822.156,2233.232,818.156" fill="#181818" style="stroke:#181818;stroke-width:1;stroke-linejoin:miter;stroke-miterlimit:10;"/><line x1="2013.866" y1="818.156" x2="2235.232" y2="818.156" style="stroke:#181818;stroke-width:1;"/><text x="2020.866" y="813.09" fill="#000" font-size="13" textLength="114.55">rank(recipes, ctx)</text><path d="M2225.232,830.156 L2301.856,830.156 L2301.856,837.289 L2291.856,847.289 L2225.232,847.289 L2225.232,830.156" style="stroke:#000;stroke-width:1.5;" fill="#EEE"/><rect x="2225.232" y="830.156" width="203.16" height="56.266" fill="none" style="stroke:#000;stroke-width:1.5;"/><text x="2240.232" y="843.223" fill="#000" font-size="13" textLength="31.624" font-weight="700">loop</text><text x="2316.856" y="842.367" fill="#000" font-size="11" textLength="95.536" font-weight="700">[each strategy]</text><polygon points="2381.758,874.422,2391.758,878.422,2381.758,882.422,2385.758,878.422" fill="#181818" style="stroke:#181818;stroke-width:1;stroke-linejoin:miter;stroke-miterlimit:10;"/><line x1="2241.232" y1="878.422" x2="2387.758" y2="878.422" style="stroke:#181818;stroke-width:1;"/><text x="2248.232" y="873.356" fill="#000" font-size="13" textLength="113.915">score(recipe, ctx)</text><polygon points="2024.866,917.555,2014.866,921.555,2024.866,925.555,2020.866,921.555" fill="#181818" style="stroke:#181818;stroke-width:1;stroke-linejoin:miter;stroke-miterlimit:10;"/><line x1="2018.866" y1="921.555" x2="2240.232" y2="921.555" style="stroke:#181818;stroke-width:1;stroke-dasharray:2,2;"/><text x="2030.866" y="916.489" fill="#000" font-size="13" textLength="203.366">List&lt;RecipeRecommendation></text><polygon points="1615.744,946.688,1625.744,950.688,1615.744,954.688,1619.744,950.688" fill="#181818" style="stroke:#181818;stroke-width:1;stroke-linejoin:miter;stroke-miterlimit:10;"/><line x1="1219.902" y1="950.688" x2="1621.744" y2="950.688" style="stroke:#181818;stroke-width:1;"/><text x="1226.902" y="945.622" fill="#000" font-size="13" textLength="233.689">complete(recommendation prompt)</text><polygon points="1230.902,975.82,1220.902,979.82,1230.902,983.82,1226.902,979.82" fill="#181818" style="stroke:#181818;stroke-width:1;stroke-linejoin:miter;stroke-miterlimit:10;"/><line x1="1224.902" y1="979.82" x2="1626.744" y2="979.82" style="stroke:#181818;stroke-width:1;stroke-dasharray:2,2;"/><text x="1236.902" y="974.754" fill="#000" font-size="13" textLength="51.048">reasons</text><polygon points="954.456,1004.953,944.456,1008.953,954.456,1012.953,950.456,1008.953" fill="#181818" style="stroke:#181818;stroke-width:1;stroke-linejoin:miter;stroke-miterlimit:10;"/><line x1="948.456" y1="1008.953" x2="1218.902" y2="1008.953" style="stroke:#181818;stroke-width:1;stroke-dasharray:2,2;"/><text x="960.456" y="1003.887" fill="#000" font-size="13" textLength="229.544">AgentResponse(recommendations)</text><polygon points="544.971,1034.086,534.971,1038.086,544.971,1042.086,540.971,1038.086" fill="#181818" style="stroke:#181818;stroke-width:1;stroke-linejoin:miter;stroke-miterlimit:10;"/><line x1="538.971" y1="1038.086" x2="942.456" y2="1038.086" style="stroke:#181818;stroke-width:1;stroke-dasharray:2,2;"/><text x="550.971" y="1033.02" fill="#000" font-size="13" textLength="59.332">response</text><polygon points="258.413,1063.219,248.413,1067.219,258.413,1071.219,254.413,1067.219" fill="#181818" style="stroke:#181818;stroke-width:1;stroke-linejoin:miter;stroke-miterlimit:10;"/><line x1="252.413" y1="1067.219" x2="532.971" y2="1067.219" style="stroke:#181818;stroke-width:1;stroke-dasharray:2,2;"/><text x="264.413" y="1062.153" fill="#000" font-size="13" textLength="117.901">recommendations</text><line x1="247.413" y1="1096.352" x2="289.413" y2="1096.352" style="stroke:#181818;stroke-width:1;"/><line x1="289.413" y1="1096.352" x2="289.413" y2="1109.352" style="stroke:#181818;stroke-width:1;"/><line x1="248.413" y1="1109.352" x2="289.413" y2="1109.352" style="stroke:#181818;stroke-width:1;"/><polygon points="258.413,1105.352,248.413,1109.352,258.413,1113.352,254.413,1109.352" fill="#181818" style="stroke:#181818;stroke-width:1;stroke-linejoin:miter;stroke-miterlimit:10;"/><text x="254.413" y="1091.286" fill="#000" font-size="13" textLength="192.594">showRecommendations(recs)</text><rect x="10" y="1151.918" width="2901.943" height="3" fill="#EEE" style="stroke:#EEE;stroke-width:1;"/><line x1="10" y1="1151.918" x2="2911.943" y2="1151.918" style="stroke:#000;stroke-width:1;"/><line x1="10" y1="1154.918" x2="2911.943" y2="1154.918" style="stroke:#000;stroke-width:1;"/><rect x="1363.279" y="1141.352" width="195.384" height="23.133" fill="#EEE" style="stroke:#000;stroke-width:2;"/><text x="1369.279" y="1157.418" fill="#000" font-size="13" textLength="176.858" font-weight="700">F10: Leftover utilization</text><polygon points="235.413,1191.617,245.413,1195.617,235.413,1199.617,239.413,1195.617" fill="#181818" style="stroke:#181818;stroke-width:1;stroke-linejoin:miter;stroke-miterlimit:10;"/><line x1="53.404" y1="1195.617" x2="241.413" y2="1195.617" style="stroke:#181818;stroke-width:1;"/><text x="60.404" y="1190.551" fill="#000" font-size="13" textLength="122.275">click Use Leftovers</text><polygon points="521.971,1220.75,531.971,1224.75,521.971,1228.75,525.971,1224.75" fill="#181818" style="stroke:#181818;stroke-width:1;stroke-linejoin:miter;stroke-miterlimit:10;"/><line x1="247.413" y1="1224.75" x2="527.971" y2="1224.75" style="stroke:#181818;stroke-width:1;"/><text x="254.413" y="1219.684" fill="#000" font-size="13" textLength="146.491">suggestLeftoverUses()</text><polygon points="931.456,1249.883,941.456,1253.883,931.456,1257.883,935.456,1253.883" fill="#181818" style="stroke:#181818;stroke-width:1;stroke-linejoin:miter;stroke-miterlimit:10;"/><line x1="533.971" y1="1253.883" x2="937.456" y2="1253.883" style="stroke:#181818;stroke-width:1;"/><text x="540.971" y="1248.817" fill="#000" font-size="13" textLength="189.795">handle(request[LEFTOVERS])</text><polygon points="1387.857,1279.016,1397.857,1283.016,1387.857,1287.016,1391.857,1283.016" fill="#181818" style="stroke:#181818;stroke-width:1;stroke-linejoin:miter;stroke-miterlimit:10;"/><line x1="943.456" y1="1283.016" x2="1393.857" y2="1283.016" style="stroke:#181818;stroke-width:1;"/><text x="950.456" y="1277.95" fill="#000" font-size="13" textLength="112.017">execute(request)</text><polygon points="1728.15,1308.148,1738.15,1312.148,1728.15,1316.148,1732.15,1312.148" fill="#181818" style="stroke:#181818;stroke-width:1;stroke-linejoin:miter;stroke-miterlimit:10;"/><line x1="1399.857" y1="1312.148" x2="1734.15" y2="1312.148" style="stroke:#181818;stroke-width:1;"/><text x="1406.857" y="1307.083" fill="#000" font-size="13" textLength="222.162">execute("pantry_query", expiring)</text><polygon points="2541.889,1337.281,2551.889,1341.281,2541.889,1345.281,2545.889,1341.281" fill="#181818" style="stroke:#181818;stroke-width:1;stroke-linejoin:miter;stroke-miterlimit:10;"/><line x1="1740.15" y1="1341.281" x2="2547.889" y2="1341.281" style="stroke:#181818;stroke-width:1;"/><text x="1747.15" y="1336.215" fill="#000" font-size="13" textLength="147.792">getExpiringSoon(days)</text><polygon points="1751.15,1366.414,1741.15,1370.414,1751.15,1374.414,1747.15,1370.414" fill="#181818" style="stroke:#181818;stroke-width:1;stroke-linejoin:miter;stroke-miterlimit:10;"/><line x1="1745.15" y1="1370.414" x2="2552.889" y2="1370.414" style="stroke:#181818;stroke-width:1;stroke-dasharray:2,2;"/><text x="1757.15" y="1365.348" fill="#000" font-size="13" textLength="36.144">items</text><polygon points="2677.591,1395.547,2687.591,1399.547,2677.591,1403.547,2681.591,1399.547" fill="#181818" style="stroke:#181818;stroke-width:1;stroke-linejoin:miter;stroke-miterlimit:10;"/><line x1="1399.857" y1="1399.547" x2="2683.591" y2="1399.547" style="stroke:#181818;stroke-width:1;"/><text x="1406.857" y="1394.481" fill="#000" font-size="13" textLength="91.095">getAvailable()</text><polygon points="1410.857,1424.68,1400.857,1428.68,1410.857,1432.68,1406.857,1428.68" fill="#181818" style="stroke:#181818;stroke-width:1;stroke-linejoin:miter;stroke-miterlimit:10;"/><line x1="1404.857" y1="1428.68" x2="2688.591" y2="1428.68" style="stroke:#181818;stroke-width:1;stroke-dasharray:2,2;"/><text x="1416.857" y="1423.614" fill="#000" font-size="13" textLength="107.631">leftover portions</text><path d="M231.413,1440.68 L295.856,1440.68 L295.856,1447.813 L285.856,1457.813 L231.413,1457.813 L231.413,1440.68" style="stroke:#000;stroke-width:1.5;" fill="#EEE"/><rect x="231.413" y="1440.68" width="2621.632" height="408.531" fill="none" style="stroke:#000;stroke-width:1.5;"/><text x="246.413" y="1453.747" fill="#000" font-size="13" textLength="19.443" font-weight="700">alt</text><text x="310.856" y="1452.89" fill="#000" font-size="11" textLength="218.378" font-weight="700">[nothing expiring and no leftovers]</text><polygon points="954.456,1484.945,944.456,1488.945,954.456,1492.945,950.456,1488.945" fill="#181818" style="stroke:#181818;stroke-width:1;stroke-linejoin:miter;stroke-miterlimit:10;"/><line x1="948.456" y1="1488.945" x2="1398.857" y2="1488.945" style="stroke:#181818;stroke-width:1;stroke-dasharray:2,2;"/><text x="960.456" y="1483.879" fill="#000" font-size="13" textLength="170.066">AgentResponse(message)</text><polygon points="258.413,1514.078,248.413,1518.078,258.413,1522.078,254.413,1518.078" fill="#181818" style="stroke:#181818;stroke-width:1;stroke-linejoin:miter;stroke-miterlimit:10;"/><line x1="252.413" y1="1518.078" x2="532.971" y2="1518.078" style="stroke:#181818;stroke-width:1;stroke-dasharray:2,2;"/><text x="264.413" y="1513.012" fill="#000" font-size="13" textLength="228.744">showMessage("Nothing to use up")</text><line x1="231.413" y1="1527.078" x2="2853.045" y2="1527.078" style="stroke:#000;stroke-width:1;stroke-dasharray:2,2;"/><text x="236.413" y="1539.289" fill="#000" font-size="11" textLength="135.561" font-weight="700">[something available]</text><polygon points="1728.15,1562.016,1738.15,1566.016,1728.15,1570.016,1732.15,1566.016" fill="#181818" style="stroke:#181818;stroke-width:1;stroke-linejoin:miter;stroke-miterlimit:10;"/><line x1="1399.857" y1="1566.016" x2="1734.15" y2="1566.016" style="stroke:#181818;stroke-width:1;"/><text x="1406.857" y="1560.95" fill="#000" font-size="13" textLength="209.003">execute("recipe_search", items)</text><polygon points="1410.857,1591.148,1400.857,1595.148,1410.857,1599.148,1406.857,1595.148" fill="#181818" style="stroke:#181818;stroke-width:1;stroke-linejoin:miter;stroke-miterlimit:10;"/><line x1="1404.857" y1="1595.148" x2="1739.15" y2="1595.148" style="stroke:#181818;stroke-width:1;stroke-dasharray:2,2;"/><text x="1416.857" y="1590.083" fill="#000" font-size="13" textLength="115.788">candidate recipes</text><polygon points="1615.744,1620.281,1625.744,1624.281,1615.744,1628.281,1619.744,1624.281" fill="#181818" style="stroke:#181818;stroke-width:1;stroke-linejoin:miter;stroke-miterlimit:10;"/><line x1="1399.857" y1="1624.281" x2="1621.744" y2="1624.281" style="stroke:#181818;stroke-width:1;"/><text x="1406.857" y="1619.215" fill="#000" font-size="13" textLength="203.887">complete(buildLeftoverPrompt)</text><polygon points="1410.857,1649.414,1400.857,1653.414,1410.857,1657.414,1406.857,1653.414" fill="#181818" style="stroke:#181818;stroke-width:1;stroke-linejoin:miter;stroke-miterlimit:10;"/><line x1="1404.857" y1="1653.414" x2="1626.744" y2="1653.414" style="stroke:#181818;stroke-width:1;stroke-dasharray:2,2;"/><text x="1416.857" y="1648.348" fill="#000" font-size="13" textLength="114.137">suggestions JSON</text><polygon points="2825.045,1678.547,2835.045,1682.547,2825.045,1686.547,2829.045,1682.547" fill="#181818" style="stroke:#181818;stroke-width:1;stroke-linejoin:miter;stroke-miterlimit:10;"/><line x1="1399.857" y1="1682.547" x2="2831.045" y2="1682.547" style="stroke:#181818;stroke-width:1;"/><text x="1406.857" y="1677.481" fill="#000" font-size="13" textLength="227.183">validateRecipe(suggestion, profile)</text><polygon points="1410.857,1707.68,1400.857,1711.68,1410.857,1715.68,1406.857,1711.68" fill="#181818" style="stroke:#181818;stroke-width:1;stroke-linejoin:miter;stroke-miterlimit:10;"/><line x1="1404.857" y1="1711.68" x2="2836.045" y2="1711.68" style="stroke:#181818;stroke-width:1;stroke-dasharray:2,2;"/><text x="1416.857" y="1706.614" fill="#000" font-size="13" textLength="105.955">ValidationResult</text><polygon points="954.456,1736.813,944.456,1740.813,954.456,1744.813,950.456,1740.813" fill="#181818" style="stroke:#181818;stroke-width:1;stroke-linejoin:miter;stroke-miterlimit:10;"/><line x1="948.456" y1="1740.813" x2="1398.857" y2="1740.813" style="stroke:#181818;stroke-width:1;stroke-dasharray:2,2;"/><text x="960.456" y="1735.747" fill="#000" font-size="13" textLength="229.544">AgentResponse(recommendations)</text><polygon points="544.971,1765.945,534.971,1769.945,544.971,1773.945,540.971,1769.945" fill="#181818" style="stroke:#181818;stroke-width:1;stroke-linejoin:miter;stroke-miterlimit:10;"/><line x1="538.971" y1="1769.945" x2="942.456" y2="1769.945" style="stroke:#181818;stroke-width:1;stroke-dasharray:2,2;"/><text x="550.971" y="1764.879" fill="#000" font-size="13" textLength="59.332">response</text><polygon points="258.413,1795.078,248.413,1799.078,258.413,1803.078,254.413,1799.078" fill="#181818" style="stroke:#181818;stroke-width:1;stroke-linejoin:miter;stroke-miterlimit:10;"/><line x1="252.413" y1="1799.078" x2="532.971" y2="1799.078" style="stroke:#181818;stroke-width:1;stroke-dasharray:2,2;"/><text x="264.413" y="1794.012" fill="#000" font-size="13" textLength="117.901">recommendations</text><line x1="247.413" y1="1828.211" x2="289.413" y2="1828.211" style="stroke:#181818;stroke-width:1;"/><line x1="289.413" y1="1828.211" x2="289.413" y2="1841.211" style="stroke:#181818;stroke-width:1;"/><line x1="248.413" y1="1841.211" x2="289.413" y2="1841.211" style="stroke:#181818;stroke-width:1;"/><polygon points="258.413,1837.211,248.413,1841.211,258.413,1845.211,254.413,1841.211" fill="#181818" style="stroke:#181818;stroke-width:1;stroke-linejoin:miter;stroke-miterlimit:10;"/><text x="254.413" y="1823.145" fill="#000" font-size="13" textLength="192.594">showRecommendations(recs)</text><?plantuml-src nLPTRnev57sVNs7n1Df4wgflQ1E9PQ6b6H8o47XOhIftk0mM7djYUsZehzzhUpmVxAHzN1uWyZtt-nmxD3LIaS5dcGEPIdaQ4Ah9IrHGPLZA2YeCMGBbAqw50FNfPM7j-FCUOavJkWSBcdSW2U0Va40XDSEC5uj8alueJ6IJ3F04CPFhA3BFGUofOLBif3eTkFnkSRiEBeQ3aMTGRKHy1OcNAoNFR0_AMUDbnxoHaY-fe9atRxhM5NwfotC9wcA15h5wtlGql0QgqcF09Ei-J4B5oMT97lf2f5BXHDP6KGEP6zowfvY5EEF8gick5htZs2YQLgdYRYLJAJGcOC9iAMSuNkbGqsqKtTsH-OUFOx8GcO8zitlHhYiot8C1bJF1D0OQaRkxw8NStbjwZ0dYC1EhdJJvZHmOnqCTMHeXRZwk8lrvQOBhOSld9hYCehdrI99-5q5pQ8EJXDpw1ChDK5ltK5auggfmP_eel_jnws5b7pMjJnRMgSMyRgk3rvAb9t9asV6sKD804uIN8ZqEMftM0K8QHEQ5gHgRZCcHYZq7pFvQWZP_9xFfqt8vU_phdr4qiP0TplGDqjBKc56qimQaxfXWy8BZEeRmXdjCNP4X0m9SznWXw2l124n1RgSNKMv8phJ6yuKuI2Aa8O2UbuZWP-TyiK2doGHqWLo1OSgfOWUMkdaystBm5uTcNLh3fleqRIE7hmqKk0QYMfNKNOJ4zoYyfkr1uPZ-zTNgRd23v2fAupDkbXQC6cpGBIkUkufiC1-3C0EvVYUD9y1NJxI-FAZZtZnuximFk6uKTM3I3KdDcqTmAGi25CMZApsxO-VyO7tNo4KKF5I-BLUaJXHmeOOObVT7k5hR1BrlMklIuuh7WI8MtQA90gfnHJ_RVpTGjVX98piFkwR3bPSpz-YmZR6PB5cmVIV8tp-CwmkDb8PnzgD7aoctadn1WWLivzefimnf64m8qyDtbHZFvfkdxInP1oN6VLACVqbNU2kOlSb7KSLMB3C3CwkErnBLiQSNx7MrgEdgUUg3nnldC3bJnkath12pUcBRYdYOII6L7wxLDMhvYC7hv0HxmyCQxLSGlxDal5KrFe7_KRLTqzBRXeF7AeMHfCHvbyMWahR6VogyYOQIwso_afnjkv5SrMAAnTl72Uexl0dNfVctal5zME-gX-GsNCK2EoloPVtqs8estOx9sR-4uFKrRD0tLZRurbHpcMxhYDNZYHWSOSdDJuVxFoZeNm00?></g></svg>